<?xml version="1.0" encoding="UTF-8"?>
<svg xmlns="http://www.w3.org/2000/svg" xmlns:xlink="http://www.w3.org/1999/xlink" width="1080" zoomAndPan="magnify" viewBox="0 0 810 809.999993" height="1080" preserveAspectRatio="xMidYMid meet" version="1.0">
  <defs>
    <clipPath id="86c6a6b9d8">
      <path d="M 0 0 L 810 0 L 810 807 L 0 807 Z M 0 0 " clip-rule="nonzero"></path>
    </clipPath>
  </defs>
  <g clip-path="url(#86c6a6b9d8)">
    <path fill="#cb1eaa" d="M 810.085938 405.050781 C 810.085938 181.332031 628.753906 0 405.074219 0 C 181.390625 0 0.0234375 181.332031 0.0234375 405.050781 C 0.0234375 594.996094 130.785156 754.40625 307.210938 798.175781 L 307.210938 528.832031 L 223.667969 528.832031 L 223.667969 405.050781 L 307.210938 405.050781 L 307.210938 351.71875 C 307.210938 213.867188 369.589844 149.957031 504.9375 149.957031 C 530.601562 149.957031 574.878906 154.976562 592.984375 160.027344 L 592.984375 272.214844 C 583.421875 271.195312 566.808594 270.6875 546.195312 270.6875 C 479.777344 270.6875 454.113281 295.84375 454.113281 361.246094 L 454.113281 405.015625 L 586.402344 405.015625 L 563.683594 528.796875 L 454.113281 528.796875 L 454.113281 807.082031 C 654.675781 782.871094 810.085938 612.082031 810.085938 405.015625 Z M 810.085938 405.050781 " fill-opacity="1" fill-rule="nonzero"></path>
  </g>
</svg>
