<?xml version="1.0" encoding="UTF-8"?>
<svg xmlns="http://www.w3.org/2000/svg" xmlns:xlink="http://www.w3.org/1999/xlink" width="1080" zoomAndPan="magnify" viewBox="0 0 810 809.999993" height="1080" preserveAspectRatio="xMidYMid meet" version="1.0">
  <defs>
    <clipPath id="7ea6fb751b">
      <path d="M 0 0 L 808.746094 0 L 808.746094 810 L 0 810 Z M 0 0 " clip-rule="nonzero"></path>
    </clipPath>
  </defs>
  <g clip-path="url(#7ea6fb751b)">
    <path fill="#cb1eaa" d="M 235.910156 2.785156 C 192.832031 4.808594 163.417969 11.714844 137.703125 21.785156 C 111.070312 32.164062 88.519531 46.050781 66.085938 68.601562 C 43.613281 91.148438 29.804688 113.734375 19.539062 140.40625 C 9.582031 166.195312 2.828125 195.613281 0.921875 238.726562 C -0.988281 281.878906 -1.40625 295.652344 -1.214844 405.609375 C -1.023438 515.53125 -0.527344 529.34375 1.53125 572.53125 C 3.589844 615.609375 10.460938 644.984375 20.53125 670.738281 C 30.910156 697.371094 44.796875 719.882812 67.347656 742.355469 C 89.894531 764.824219 112.480469 778.597656 139.152344 788.902344 C 164.90625 798.859375 194.359375 805.652344 237.433594 807.519531 C 280.625 809.425781 294.398438 809.847656 404.320312 809.617188 C 514.277344 809.425781 528.050781 808.933594 571.238281 806.871094 C 614.316406 804.8125 643.695312 797.90625 669.449219 787.871094 C 696.078125 777.453125 718.628906 763.605469 741.0625 741.054688 C 763.496094 718.507812 777.308594 695.921875 787.609375 669.25 C 797.566406 643.496094 804.359375 614.042969 806.226562 571.007812 C 808.097656 527.816406 808.554688 514.003906 808.363281 404.085938 C 808.171875 294.164062 807.640625 280.390625 805.617188 237.199219 C 803.558594 194.085938 796.691406 164.707031 786.617188 138.957031 C 776.199219 112.324219 762.351562 89.8125 739.800781 67.339844 C 717.253906 44.90625 694.667969 31.058594 667.996094 20.792969 C 642.242188 10.835938 612.789062 4.042969 569.714844 2.175781 C 526.523438 0.265625 512.710938 -0.152344 402.792969 0.0390625 C 292.871094 0.230469 279.097656 0.726562 235.910156 2.785156 M 240.640625 734.609375 C 201.1875 732.890625 179.746094 726.328125 165.4375 720.835938 C 146.515625 713.507812 133.046875 704.734375 118.816406 690.65625 C 104.621094 676.5 95.847656 663.03125 88.445312 644.183594 C 82.914062 629.914062 76.234375 608.511719 74.367188 569.023438 C 72.34375 526.367188 71.886719 513.546875 71.695312 405.457031 C 71.503906 297.40625 71.886719 284.585938 73.757812 241.894531 C 75.433594 202.441406 82.035156 181 87.53125 166.730469 C 94.855469 147.808594 103.59375 134.339844 117.707031 120.105469 C 131.863281 105.914062 145.332031 97.140625 164.21875 89.738281 C 178.488281 84.167969 199.890625 77.527344 239.34375 75.660156 C 282.035156 73.636719 294.816406 73.214844 402.90625 72.988281 C 510.996094 72.757812 523.816406 73.140625 566.507812 75.046875 C 605.960938 76.765625 627.402344 83.289062 641.671875 88.820312 C 660.597656 96.148438 674.101562 104.847656 688.296875 119 C 702.488281 133.15625 711.300781 146.585938 718.664062 165.511719 C 724.234375 179.742188 730.875 201.183594 732.746094 240.597656 C 734.765625 283.289062 735.222656 296.109375 735.414062 404.160156 C 735.605469 512.25 735.222656 525.070312 733.355469 567.726562 C 731.636719 607.175781 725.074219 628.65625 719.582031 642.925781 C 712.253906 661.8125 703.519531 675.316406 689.363281 689.511719 C 675.207031 703.667969 661.777344 712.480469 642.855469 719.882812 C 628.625 725.453125 607.179688 732.089844 567.769531 733.960938 C 525.074219 735.980469 512.292969 736.441406 404.164062 736.628906 C 296.113281 736.820312 283.296875 736.441406 240.601562 734.570312 M 570.667969 188.441406 C 570.707031 215.261719 592.53125 236.972656 619.3125 236.894531 C 646.136719 236.855469 667.84375 215.070312 667.808594 188.25 C 667.769531 161.425781 645.945312 139.71875 619.121094 139.757812 C 592.300781 139.792969 570.589844 161.617188 570.628906 188.402344 M 195.695312 405.230469 C 195.921875 520.03125 289.171875 612.898438 403.9375 612.667969 C 518.742188 612.441406 611.644531 519.230469 611.414062 404.425781 C 611.1875 289.660156 517.941406 196.757812 403.136719 196.949219 C 288.371094 197.175781 195.464844 290.425781 195.695312 405.230469 M 268.605469 405.078125 C 268.492188 330.5625 328.773438 270.011719 403.289062 269.898438 C 477.800781 269.746094 538.351562 330.027344 538.503906 404.582031 C 538.65625 479.09375 478.335938 539.644531 403.824219 539.757812 C 329.308594 539.910156 268.757812 479.589844 268.644531 405.078125 " fill-opacity="1" fill-rule="nonzero"></path>
  </g>
</svg>
